# File created by Blade
# Date/Time:  Tue Jan 27 19:05:02 2015
# Frame Rate: 120.000 fps
#------------------------------------------------------
:FULLY-SPECIFIED
:DEGREES
2583
root -2.171136 31.740623 -5.641293 9.491809 -31.051008 -5.110982
Spine 1.836299 12.256815 -1.259916
Head 24.545761 29.518477 -2.101893
LeftShoulder -21.583931 19.429521 12.946575
LeftArm -1.372514 -53.646737 -71.498507
LeftForeArm -7.579016 -0.000000 96.130813
LeftHand -14.361534 0.000000 47.712758
LeftHandThumb1 -26.253704 0.000000 33.147579
RightShoulder -0.476535 10.989958 -5.748436
RightArm 23.559517 -61.464157 78.593908
RightForeArm -17.750051 -0.000000 19.204262
RightHand -12.761000 -0.000000 14.990608
RightHandThumb1 -24.326973 -0.000000 -32.862282
LeftUpLeg -11.817316 10.627534 -7.830577
LeftLeg 14.870289 -0.000000 -0.000000
LeftFoot -28.787720 33.891808 -18.194611
LeftToeBase 10.690092 -0.000000 -0.000000
RightUpLeg -14.978365 -41.518028 -4.801934
RightLeg 0.143283 -0.000000 -0.000000
RightFoot -22.568092 -31.099662 12.016577
RightToeBase -0.641937 -0.000000 0.000000
2584
root -2.170124 31.734919 -5.641585 9.407132 -30.884140 -5.050799
Spine 1.902576 12.217112 -1.291164
Head 24.628298 29.378131 -1.975361
LeftShoulder -21.536340 19.380344 12.975144
LeftArm -1.169686 -53.537517 -71.620424
LeftForeArm -7.517459 0.000000 96.192157
LeftHand -14.380629 -0.000000 47.703909
LeftHandThumb1 -26.253704 0.000000 33.147579
RightShoulder -0.460532 11.007273 -5.738439
RightArm 23.332744 -61.346156 78.794783
RightForeArm -17.891907 0.000000 19.170335
RightHand -12.709537 -0.000000 15.169610
RightHandThumb1 -24.326973 -0.000000 -32.862282
LeftUpLeg -11.779866 10.610055 -7.860705
LeftLeg 14.902112 -0.000000 -0.000000
LeftFoot -28.753260 33.786783 -18.120572
LeftToeBase 10.647649 -0.000000 -0.000000
RightUpLeg -15.331044 -42.430245 -4.540579
RightLeg -0.088860 -0.000000 0.000000
RightFoot -22.663279 -30.316380 11.752406
RightToeBase -0.251847 -0.000000 0.000000
2585
root -2.167540 31.729934 -5.645797 9.363022 -30.679024 -5.012771
Spine 1.948751 12.144929 -1.293353
Head 24.683606 29.237953 -1.899298
LeftShoulder -21.485559 19.346078 12.988453
LeftArm -0.935240 -53.446762 -71.756050
LeftForeArm -7.428602 -0.000000 96.228050
LeftHand -14.408732 0.000000 47.699966
LeftHandThumb1 -26.253704 0.000000 33.147579
RightShoulder -0.433111 11.023753 -5.722043
RightArm 23.237016 -61.377325 78.860450
RightForeArm -17.634947 -0.000000 19.117309
RightHand -12.797869 -0.000000 15.015499
RightHandThumb1 -24.326973 -0.000000 -32.862282
LeftUpLeg -11.789085 10.568000 -7.875545
LeftLeg 14.940448 -0.000000 -0.000000
LeftFoot -28.797308 33.629617 -18.101763
LeftToeBase 10.760518 -0.000000 -0.000000
RightUpLeg -15.637502 -43.164094 -4.328587
RightLeg -0.327938 -0.000000 0.000000
RightFoot -22.527719 -29.568922 11.369707
RightToeBase -0.569901 -0.000000 0.000000
2586
root -2.165572 31.724027 -5.648493 9.291816 -30.478285 -4.945224
Spine 2.005202 12.101696 -1.325388
Head 24.730363 29.081804 -1.829747
LeftShoulder -21.397359 19.321309 13.010894
LeftArm -0.711245 -53.365218 -71.862061
LeftForeArm -7.384585 -0.000000 96.249488
LeftHand -14.434425 -0.000000 47.793402
LeftHandThumb1 -26.253704 0.000000 33.147579
RightShoulder -0.439718 11.050682 -5.712391
RightArm 23.110640 -61.319339 78.977001
RightForeArm -17.729649 0.000000 19.052172
RightHand -12.769129 0.000000 15.199504
RightHandThumb1 -24.326973 -0.000000 -32.862282
LeftUpLeg -11.773865 10.510884 -7.911727
LeftLeg 14.984736 -0.000000 -0.000000
LeftFoot -28.666901 33.561378 -17.916491
LeftToeBase 11.027216 -0.000000 -0.000000
RightUpLeg -15.885012 -43.631780 -4.235220
RightLeg -0.435575 -0.000000 0.000000
RightFoot -22.767025 -28.868019 11.497869
RightToeBase -0.563803 -0.000000 0.000000
2587
root -2.163302 31.718697 -5.652434 9.253390 -30.296758 -4.884667
Spine 2.023836 12.070110 -1.363033
Head 24.773831 28.930858 -1.775433
LeftShoulder -21.333693 19.248945 13.049383
LeftArm -0.568255 -53.238250 -71.882932
LeftForeArm -7.351015 0.000000 96.252689
LeftHand -14.459709 -0.000000 47.833295
LeftHandThumb1 -26.253704 0.000000 33.147579
RightShoulder -0.410286 11.054914 -5.700885
RightArm 23.044106 -61.313689 79.034656
RightForeArm -17.772665 -0.000000 18.997293
RightHand -12.772231 -0.000000 15.237200
RightHandThumb1 -24.326973 -0.000000 -32.862282
LeftUpLeg -11.791672 10.443506 -7.945302
LeftLeg 15.027416 -0.000000 -0.000000
LeftFoot -28.645629 33.492252 -17.857521
LeftToeBase 11.063507 -0.000000 -0.000000
RightUpLeg -16.065366 -43.860983 -4.201451
RightLeg -0.669041 -0.000000 0.000000
RightFoot -22.715472 -28.576017 11.230865
RightToeBase -1.079919 -0.000000 0.000000
2588
root -2.160783 31.713735 -5.656478 9.231344 -30.132589 -4.831906
Spine 2.030418 12.051574 -1.401552
Head 24.801563 28.798971 -1.727964
LeftShoulder -21.298002 19.177161 13.081940
LeftArm -0.422890 -53.090562 -71.893091
LeftForeArm -7.354005 -0.000000 96.245707
LeftHand -14.452905 -0.000000 47.838948
LeftHandThumb1 -26.253704 0.000000 33.147579
RightShoulder -0.326337 10.971423 -5.686530
RightArm 23.182961 -61.330679 78.905298
RightForeArm -17.692695 -0.000000 18.933063
RightHand -12.816742 -0.000000 15.203525
RightHandThumb1 -24.326973 -0.000000 -32.862282
LeftUpLeg -11.826331 10.389216 -7.980274
LeftLeg 15.070317 -0.000000 -0.000000
LeftFoot -28.630196 33.482140 -17.785067
LeftToeBase 10.507684 -0.000000 -0.000000
RightUpLeg -16.203552 -43.879713 -4.228617
RightLeg -0.847288 -0.000000 0.000000
RightFoot -22.834959 -28.381535 11.380753
RightToeBase -1.313505 -0.000000 0.000000
2589
root -2.160465 31.709818 -5.659766 9.214080 -29.973191 -4.796182
Spine 2.038814 12.036477 -1.421704
Head 24.818043 28.670382 -1.711377
LeftShoulder -21.255239 19.124613 13.095290
LeftArm -0.282634 -52.972627 -71.886615
LeftForeArm -7.367550 -0.000000 96.230420
LeftHand -14.458731 -0.000000 47.804062
LeftHandThumb1 -26.253704 0.000000 33.147579
RightShoulder -0.274029 10.979421 -5.660150
RightArm 23.327166 -61.479400 78.728415
RightForeArm -17.520697 -0.000000 18.860119
RightHand -12.692501 -0.000000 15.414983
RightHandThumb1 -24.326973 -0.000000 -32.862282
LeftUpLeg -11.860698 10.332766 -7.995545
LeftLeg 15.134064 -0.000000 -0.000000
LeftFoot -28.634595 33.372510 -17.772398
LeftToeBase 10.907998 -0.000000 -0.000000
RightUpLeg -16.245013 -43.637765 -4.339282
RightLeg -1.007212 -0.000000 0.000000
RightFoot -23.200080 -28.280903 11.886424
RightToeBase -0.961417 -0.000000 0.000000
2590
root -2.159322 31.705514 -5.661648 9.190982 -29.820393 -4.744094
Spine 2.045185 12.029897 -1.458409
Head 24.808009 28.557057 -1.708198
LeftShoulder -21.235979 19.079555 13.115838
LeftArm -0.108531 -52.860730 -71.909317
LeftForeArm -7.363311 0.000000 96.189668
LeftHand -14.554828 -0.000000 47.654339
LeftHandThumb1 -26.253704 0.000000 33.147579
RightShoulder -0.279613 10.958757 -5.639130
RightArm 23.374006 -61.503873 78.707940
RightForeArm -17.627621 -0.000000 18.790185
RightHand -12.733412 0.000000 15.407484
RightHandThumb1 -24.326973 -0.000000 -32.862282
LeftUpLeg -11.886884 10.261792 -8.026353
LeftLeg 15.170006 -0.000000 -0.000000
LeftFoot -28.609094 33.318237 -17.718475
LeftToeBase 11.040289 -0.000000 -0.000000
RightUpLeg -16.273086 -43.300409 -4.501993
RightLeg -1.121865 -0.000000 0.000000
RightFoot -23.426658 -28.345487 12.188444
RightToeBase -0.514672 -0.000000 0.000000
2591
root -2.159415 31.702538 -5.663971 9.188142 -29.653872 -4.715425
Spine 2.043981 11.999057 -1.467401
Head 24.781562 28.456527 -1.747685
LeftShoulder -21.222841 19.039613 13.124869
LeftArm 0.020466 -52.746990 -71.902421
LeftForeArm -7.386607 0.000000 96.144351
LeftHand -14.560314 -0.000000 47.592515
LeftHandThumb1 -26.253704 0.000000 33.147579
RightShoulder -0.240943 11.011316 -5.634863
RightArm 23.285385 -61.563597 78.772690
RightForeArm -17.771581 -0.000000 18.772544
RightHand -12.699418 -0.000000 15.388480
RightHandThumb1 -24.326973 -0.000000 -32.862282
LeftUpLeg -11.929762 10.185226 -8.036175
LeftLeg 15.223104 -0.000000 -0.000000
LeftFoot -28.581696 33.269376 -17.649441
LeftToeBase 10.881275 -0.000000 -0.000000
RightUpLeg -16.282962 -42.918373 -4.648781
RightLeg -1.229362 -0.000000 0.000000
RightFoot -23.637629 -28.503898 12.508956
RightToeBase -0.603966 -0.000000 0.000000
2592
root -2.157115 31.699866 -5.663368 9.185968 -29.492029 -4.681273
Spine 2.038013 11.967447 -1.465087
Head 24.743618 28.371869 -1.822827
LeftShoulder -21.219068 19.019060 13.105931
LeftArm 0.152902 -52.637080 -71.900346
LeftForeArm -7.417162 0.000000 96.105846
LeftHand -14.573006 -0.000000 47.568808
LeftHandThumb1 -26.253704 0.000000 33.147579
RightShoulder -0.186255 11.080294 -5.636496
RightArm 23.200294 -61.643498 78.843579
RightForeArm -17.896025 -0.000000 18.721641
RightHand -12.586575 0.000000 15.447456
RightHandThumb1 -24.326973 -0.000000 -32.862282
LeftUpLeg -11.971393 10.092267 -8.057431
LeftLeg 15.277099 -0.000000 -0.000000
LeftFoot -28.553041 33.259432 -17.574694
LeftToeBase 10.613079 -0.000000 -0.000000
RightUpLeg -16.291852 -42.559128 -4.797929
RightLeg -1.303779 -0.000000 0.000000
RightFoot -23.845532 -28.575887 12.812930
RightToeBase -0.245603 -0.000000 0.000000
2593
root -2.156448 31.697872 -5.662494 9.195541 -29.333841 -4.665830
Spine 2.028008 11.936114 -1.446550
Head 24.690433 28.297336 -1.917215
LeftShoulder -21.215830 18.987345 13.086624
LeftArm 0.217440 -52.517689 -71.848054
LeftForeArm -7.477879 -0.000000 96.077734
LeftHand -14.512444 -0.000000 47.663225
LeftHandThumb1 -26.253704 0.000000 33.147579
RightShoulder -0.145884 11.107559 -5.638587
RightArm 23.327134 -61.829348 78.701644
RightForeArm -17.848200 -0.000000 18.692463
RightHand -12.685747 0.000000 15.383880
RightHandThumb1 -24.326973 -0.000000 -32.862282
LeftUpLeg -12.012790 10.002138 -8.070406
LeftLeg 15.332563 -0.000000 -0.000000
LeftFoot -28.569429 33.339663 -17.551956
LeftToeBase 10.265819 -0.000000 -0.000000
RightUpLeg -16.323173 -42.235588 -4.895435
RightLeg -1.373173 -0.000000 0.000000
RightFoot -23.816228 -28.843662 12.848793
RightToeBase -0.490528 -0.000000 0.000000
2594
root -2.160594 31.697829 -5.662011 9.210897 -29.213617 -4.687879
Spine 2.026185 11.950814 -1.410388
Head 24.638142 28.241365 -2.002102
LeftShoulder -21.221594 18.979535 13.065574
LeftArm 0.317760 -52.413613 -71.826052
LeftForeArm -7.475740 -0.000000 96.047218
LeftHand -14.569142 -0.000000 47.596822
LeftHandThumb1 -26.253704 0.000000 33.147579
RightShoulder -0.081606 11.151317 -5.630005
RightArm 23.212441 -61.758969 78.837706
RightForeArm -18.014927 -0.000000 18.610299
RightHand -12.591521 -0.000000 15.592486
RightHandThumb1 -24.326973 -0.000000 -32.862282
LeftUpLeg -12.043715 10.003873 -8.041222
LeftLeg 15.387848 -0.000000 -0.000000
LeftFoot -28.550512 33.288924 -17.485290
LeftToeBase 10.194352 -0.000000 -0.000000
RightUpLeg -16.321017 -41.809718 -4.978730
RightLeg -1.372756 -0.000000 0.000000
RightFoot -23.882333 -29.078983 12.988593
RightToeBase -0.899086 -0.000000 0.000000
